# xmcd CD database file
#
# Track frame offsets:
#	150
#	15600
#	36032
#	61222
#	77535
#	94195
#	111397
#	130522
#	146422
#	169135
#	185097
#
# Disc length: 2809 seconds
#
# Revision: 7
# Processed by: cddbd v1.5.2PL0 Copyright (c) Steve Scherf et al.
# Submitted via: CDex 2.06
#
DISCID=8b0af70b
DTITLE=Little Jimmy King - Something Inside of Me
DYEAR=1994
DGENRE=Blues
TTITLE0=Under Pressure
TTITLE1=Can't You See What You're Doin' to Me
TTITLE2=Something Inside of Me
TTITLE3=Win, Lose or Draw
TTITLE4=Strange Brew
TTITLE5=Blues Been Good to Me
TTITLE6=Baby, Baby
TTITLE7=Shouldn't Have Left Me
TTITLE8=Unlovable
TTITLE9=Resolution #1
TTITLE10=Upside Down and Backwards
EXTD=YEAR: 1994
EXTT0=
EXTT1=
EXTT2=
EXTT3=
EXTT4=
EXTT5=
EXTT6=
EXTT7=
EXTT8=
EXTT9=
EXTT10=
PLAYORDER=
